<svg viewBox="0 0 600 600" xmlns="http://www.w3.org/2000/svg" role="img" aria-labelledby="cloudHeroTitle">
  <title id="cloudHeroTitle">Illustration of a cloud infrastructure network</title>

  <defs>
    <radialGradient id="glow" cx="50%" cy="42%" r="60%">
      <stop offset="0%" stop-color="#4da3ff" stop-opacity="0.35"/>
      <stop offset="100%" stop-color="#4da3ff" stop-opacity="0"/>
    </radialGradient>
    <linearGradient id="cloudFill" x1="0%" y1="0%" x2="100%" y2="100%">
      <stop offset="0%" stop-color="#1b3a63"/>
      <stop offset="100%" stop-color="#0d2544"/>
    </linearGradient>
  </defs>

  <circle cx="300" cy="260" r="230" fill="url(#glow)"/>

  <circle cx="300" cy="260" r="190" fill="none" stroke="#3a6ea5" stroke-opacity="0.35" stroke-width="1.5" stroke-dasharray="4 8"/>
  <circle cx="300" cy="260" r="140" fill="none" stroke="#3a6ea5" stroke-opacity="0.35" stroke-width="1.5"/>

  <g stroke="#4da3ff" stroke-width="2" stroke-opacity="0.55">
    <line x1="300" y1="260" x2="120" y2="150"/>
    <line x1="300" y1="260" x2="490" y2="150"/>
    <line x1="300" y1="260" x2="110" y2="360"/>
    <line x1="300" y1="260" x2="480" y2="380"/>
    <line x1="300" y1="260" x2="300" y2="480"/>
  </g>

  <g transform="translate(160,175)">
    <path d="M45 130
             a45 45 0 0 1 0 -90
             a55 55 0 0 1 108 -18
             a40 40 0 0 1 12 79
             a45 45 0 0 1 -3 90
             z"
          fill="url(#cloudFill)"
          stroke="#4da3ff"
          stroke-width="2.5"/>
    <circle cx="80" cy="70" r="7" fill="#FF9900"/>
  </g>

  <g>
    <circle cx="120" cy="150" r="20" fill="#0d2544" stroke="#4da3ff" stroke-width="2"/>
    <rect x="111" y="141" width="18" height="18" rx="3" fill="none" stroke="#4da3ff" stroke-width="1.5"/>

    <circle cx="490" cy="150" r="20" fill="#0d2544" stroke="#FF9900" stroke-width="2"/>
    <path d="M482 154 h16 M482 148 h16 M482 160 h10" stroke="#FF9900" stroke-width="1.5" fill="none"/>

    <circle cx="110" cy="360" r="20" fill="#0d2544" stroke="#4da3ff" stroke-width="2"/>
    <path d="M102 360 a8 8 0 0 1 16 0" stroke="#4da3ff" stroke-width="1.5" fill="none"/>
    <circle cx="110" cy="362" r="3" fill="#4da3ff"/>

    <circle cx="480" cy="380" r="20" fill="#0d2544" stroke="#22C55E" stroke-width="2"/>
    <path d="M472 380 l6 6 l10 -12" stroke="#22C55E" stroke-width="2" fill="none" stroke-linecap="round" stroke-linejoin="round"/>

    <circle cx="300" cy="480" r="20" fill="#0d2544" stroke="#4da3ff" stroke-width="2"/>
    <rect x="291" y="472" width="18" height="14" rx="2" fill="none" stroke="#4da3ff" stroke-width="1.5"/>
    <line x1="295" y1="480" x2="305" y2="480" stroke="#4da3ff" stroke-width="1.5"/>
  </g>

  <g fill="#4da3ff">
    <circle cx="210" cy="205" r="3.5"/>
    <circle cx="395" cy="205" r="3.5"/>
    <circle cx="205" cy="310" r="3.5"/>
    <circle cx="390" cy="320" r="3.5"/>
    <circle cx="300" cy="370" r="3.5"/>
  </g>
</svg>
